<?xml version="1.0" encoding="utf-8"?>
<!-- Generator: Adobe Illustrator 25.3.1, SVG Export Plug-In . SVG Version: 6.00 Build 0)  -->
<svg width="182" height="48" viewBox="0 0 182 48" fill="none" xmlns="http://www.w3.org/2000/svg">
<path d="M21.9266 15.8795C17.1989 15.8946 14.1092 11.6338 15.8602 7.50661C16.9372 4.97044 19.7576 3.5169 22.8869 3.88594C25.8956 4.24179 28.0345 6.18298 28.4657 8.95073C29.0663 12.7823 26.1574 15.8663 21.9266 15.8795Z" fill="#D7DCFF"/>
<path d="M51.7652 18.1776C53.4564 16.4864 53.4564 13.7445 51.7652 12.0533C50.0741 10.3622 47.3322 10.3622 45.641 12.0533L18.8807 38.8136C17.1896 40.5048 17.1896 43.2467 18.8807 44.9379C20.5719 46.629 23.3138 46.629 25.005 44.9379L51.7652 18.1776Z" fill="#FA6464"/>
<path d="M9.18637 22.9706C7.4952 21.2794 4.75329 21.2794 3.06212 22.9706C1.37096 24.6618 1.37096 27.4037 3.06212 29.0948L18.9053 44.938C20.5964 46.6292 23.3384 46.6292 25.0295 44.938C26.7207 43.2468 26.7207 40.5049 25.0295 38.8137L9.18637 22.9706Z" fill="#FFD778"/>
<path d="M26.4418 37.4022L23.3652 34.3257L21.9531 35.7378L25.0297 38.8143C26.6075 40.3921 26.711 42.8831 25.346 44.5833C25.9692 43.9676 26.711 43.2296 26.711 43.2296C28.1269 41.5275 28.0384 38.997 26.4437 37.4022H26.4418Z" fill="#AF4B4B"/>
<path d="M176.254 21.4756C171.517 17.5782 166.062 16.7403 160.338 18.6288C154.682 20.4947 151.096 24.475 150.228 30.4699C149.399 36.1729 151.521 40.8009 156.126 44.207C160.105 47.1498 164.635 47.8126 169.4 46.841C175.619 45.5682 181.336 40.4244 181.405 32.2416C181.324 28.0956 179.711 24.3093 176.254 21.4737V21.4756ZM167.386 39.8953C163.343 40.8273 159.227 37.9918 158.634 33.8797C158.241 31.1515 158.885 28.7358 160.913 26.8266C162.94 24.9174 165.388 24.4053 168.03 25.2582C170.688 26.1168 172.221 28.0617 172.818 30.7598C172.944 31.3209 172.961 31.9102 173.029 32.4864C172.972 36.1391 170.709 39.129 167.386 39.8972V39.8953Z" fill="#3205BE"/>
<path d="M118.268 30.9123C116.967 30.1497 115.598 29.5039 114.278 28.7753C113.45 28.3178 112.599 27.8715 111.859 27.2916C110.91 26.546 110.942 25.3504 111.951 24.6933C112.538 24.3318 113.209 24.1228 113.898 24.0833C115.538 23.9854 117.069 24.4806 118.601 25.2808L121.73 19.958C121.595 19.8658 121.521 19.8036 121.439 19.7566C121.22 19.6323 121.002 19.5024 120.774 19.3951C118.65 18.3746 116.391 17.8813 114.047 17.7721C111.761 17.6629 109.513 17.8399 107.391 18.8076C101.827 21.3457 100.805 28.3761 105.489 32.3169C106.542 33.2018 107.813 33.8401 109.031 34.5104C110.132 35.1185 111.313 35.5685 112.426 36.1541C113.42 36.6756 113.759 37.3553 113.621 38.2628C113.465 39.2833 112.896 39.8858 111.81 40.1212C110.452 40.4074 109.042 40.2963 107.747 39.7992C106.519 39.3455 105.344 38.7561 104.092 38.2045L101.016 44.1881C101.191 44.3067 101.3 44.3839 101.413 44.4554C104.828 46.5962 108.56 47.4793 112.565 47.1931C114.813 47.033 116.897 46.3609 118.709 44.9732C120.915 43.2768 122.269 41.1021 122.269 38.244C122.269 35.0884 121.051 32.5504 118.268 30.9161V30.9123Z" fill="#3205BE"/>
<path d="M96.0588 18.7812H87.4844V46.2441H96.0588V18.7812Z" fill="#3205BE"/>
<path d="M141.705 39.5128C139.289 40.0268 137.86 38.9705 137.459 36.5454C137.375 36.0408 137.331 35.5306 137.329 35.0204C137.324 32.0022 137.32 28.9821 137.32 25.964C137.326 25.8792 137.341 25.7889 137.341 25.6853H143.661V18.7452H137.28V4.72949H128.695C128.683 4.89706 128.672 4.99309 128.672 5.08723V9.95433C128.672 18.958 128.667 27.9635 128.702 36.9672C128.721 38.2645 128.885 39.5561 129.186 40.8176C129.269 41.1791 129.371 41.5349 129.489 41.887C130.355 44.2556 131.982 46.0349 134.737 46.7334C136.185 47.11 137.682 47.2587 139.175 47.1834C137.68 47.2606 136.183 47.1119 134.733 46.7353C131.978 46.0386 130.35 44.2575 129.486 41.8889C130.235 44.0918 131.668 45.7637 134.042 46.5978C135.784 47.2022 137.644 47.398 139.474 47.1683H139.476C142.242 46.9593 144.859 45.9219 147.299 44.1464C147.448 44.0372 147.628 43.8376 147.628 43.6776C147.694 41.5575 147.167 39.6446 145.742 38.1986C144.315 38.6768 143.04 39.2341 141.707 39.5184L141.705 39.5128Z" fill="#3205BE"/>
<path d="M77.8973 38.6487C76.0465 39.1251 74.8415 38.3042 74.5628 36.4251C74.4291 35.5251 74.4536 34.595 74.4536 33.68C74.448 23.2943 74.4442 20.5623 74.463 10.1767V1.66065L74.3858 1.69078V0H65.8359V37.6056C65.8491 38.0199 65.8717 38.4341 65.9169 38.8445C66.1466 41.0004 66.7661 42.9999 68.4888 44.4685C69.9895 45.7413 71.7762 46.1781 73.676 46.2591C73.7984 46.2647 73.9208 46.2704 74.0432 46.2704C77.0877 46.3306 79.8404 45.5643 82.1111 43.433C82.2862 43.2692 82.5083 43.0301 82.5083 42.8211C82.5611 40.7782 82.1393 38.8803 80.6895 37.4701C79.6672 37.9125 78.8161 38.4134 77.8992 38.6487H77.8973Z" fill="#3205BE"/>
<path d="M92.4158 3.96151C90.0924 3.67909 87.995 4.78995 87.1967 6.73114C85.8956 9.88864 88.1908 13.1478 91.7041 13.1365C94.8466 13.1271 97.008 10.7679 96.5618 7.83636C96.2417 5.71818 94.6526 4.23452 92.4177 3.96151H92.4158Z" fill="#3205BE"/>
</svg>
